<svg width="518" height="521" viewBox="0 0 518 521" fill="none" xmlns="http://www.w3.org/2000/svg">
<path d="M334.871 4.8783C321.071 11.0783 315.371 14.3783 303.371 22.8783C285.471 35.4783 269.471 51.4783 259.971 65.9783C255.471 72.9783 241.371 101.378 234.471 117.478L230.171 127.478L231.671 133.978C242.171 179.278 265.871 221.178 300.671 255.678C334.571 289.378 374.371 312.278 411.671 319.578C424.871 322.178 444.171 321.978 454.971 319.178C469.071 315.478 481.171 308.978 490.271 300.078C504.971 285.878 511.871 274.478 515.771 257.978C518.371 247.278 518.271 224.978 515.571 215.578C505.171 178.578 476.171 139.978 432.471 105.078C416.371 92.1783 410.171 85.0783 407.971 76.9783C407.271 74.4783 406.571 71.7783 406.271 70.9783C405.271 67.7783 406.171 50.9783 407.971 40.9783C408.971 35.1783 410.571 26.4783 411.471 21.5783C412.371 16.6783 412.771 11.8783 412.371 11.0783C411.971 10.1783 411.671 9.17828 411.771 8.77829C411.871 8.4783 411.171 8.27829 410.171 8.4783C409.271 8.67828 407.971 8.8783 407.271 8.8783C406.571 8.9783 404.571 10.4783 402.771 12.2783C399.571 15.3783 382.471 35.9783 373.071 47.8783C367.271 55.2783 353.471 70.7783 349.571 74.2783C346.571 76.9783 346.171 77.0783 338.471 76.7783C332.871 76.4783 329.271 75.6783 326.271 74.1783C321.471 71.6783 320.371 69.1783 321.371 62.5783C322.071 58.0783 327.171 44.0783 329.371 40.4783C332.471 35.3783 334.971 30.6783 333.571 32.3783C331.671 34.6783 331.571 34.0783 333.171 30.4783C333.771 29.0783 334.571 28.3783 334.971 28.8783C335.271 29.4783 338.071 25.5783 341.271 20.1783C344.371 14.8783 347.971 8.8783 349.171 6.9783C351.071 4.07828 351.071 3.67828 349.571 4.9783C347.771 6.3783 347.771 6.27829 348.371 4.17828C348.971 2.3783 348.771 1.9783 346.771 1.9783C344.971 1.9783 344.771 1.77829 345.971 0.978302C349.371 -1.22171 344.771 0.378296 334.871 4.8783Z" fill="#EC6B15"/>
<path d="M221.27 148.878C204.77 179.478 190.77 200.378 160.37 239.978L152.37 250.478L150.67 276.478C147.87 320.078 144.47 339.678 130.07 396.478C117.77 445.078 113.97 465.678 113.97 483.978C113.97 495.678 114.27 497.878 116.97 506.278C118.57 511.378 120.87 516.578 122.07 517.778L124.17 520.078L161.47 519.778C190.47 519.578 199.17 519.178 200.17 518.178C200.97 517.378 201.57 513.478 201.77 507.578C202.27 495.678 200.97 492.578 193.47 486.878C187.87 482.678 187.77 482.578 188.37 478.578C188.67 476.278 189.47 469.778 190.07 463.978C192.07 444.278 194.77 434.178 199.07 430.478C203.07 427.178 207.97 425.878 236.67 420.478C273.87 413.478 274.57 413.178 283.77 399.478C297.77 378.478 311.67 334.178 317.07 293.178L318.37 283.878L314.37 280.778C307.47 275.378 281.67 248.778 274.67 239.978C253.57 213.378 235.37 179.378 227.77 152.478C226.77 148.578 225.47 145.078 224.97 144.578C224.47 144.078 222.87 145.978 221.27 148.878Z" fill="#EC6B15"/>
<path d="M79.9704 210.078C79.9704 210.578 78.6704 210.978 76.9704 210.978C72.6704 210.978 67.4704 215.978 65.2704 222.278C64.0704 225.778 63.5704 230.378 63.5704 236.478C63.5704 251.878 64.7704 267.278 66.2704 272.978C69.6704 285.778 72.1704 292.978 73.0704 292.978C73.6704 292.978 73.9704 293.578 73.6704 294.378C73.1704 295.478 75.9704 302.078 77.5704 303.878C78.1704 304.578 80.9704 301.778 80.4704 300.978C80.1704 300.578 80.5704 300.278 81.2704 300.378C81.9704 300.378 89.2704 294.078 97.3704 286.278L112.17 272.078L108.67 267.778C102.77 260.478 95.1704 248.178 92.9704 242.278C90.1704 234.678 89.3704 226.278 90.9704 218.978C91.9704 214.378 91.9704 212.678 91.0704 211.578C90.2704 210.678 90.2704 210.078 90.9704 209.778C91.4704 209.678 89.2704 209.378 85.9704 209.378C82.6704 209.278 79.9704 209.578 79.9704 210.078Z" fill="#EC6B15"/>
<path d="M126.97 269.678C106.87 286.578 85.8705 306.678 79.2705 315.478C73.1705 323.478 71.4705 327.678 66.9705 345.478C59.3705 375.478 54.1705 384.778 37.4705 398.278C19.0705 412.978 10.6705 425.378 5.57048 444.978C1.97048 459.078 0.970477 467.978 0.270477 492.178C-0.229523 511.478 -0.129523 514.178 1.37048 516.378L2.97048 518.978H30.8705H58.7705L60.3705 515.478C62.0705 511.878 62.6705 503.378 61.5705 498.178C61.1705 496.478 59.2705 493.978 56.8705 492.078L52.8705 488.878L53.5705 479.678C54.5705 464.378 57.5705 456.078 64.9705 447.678C71.0705 440.778 79.8705 436.778 103.57 429.978C113.07 427.278 111.17 430.678 119.37 401.978C125.87 379.778 126.87 375.478 131.47 352.978C139.27 315.278 147.57 257.678 143.97 266.978C143.17 268.978 143.07 268.378 143.47 264.178C143.67 260.878 143.47 258.978 142.77 258.978C142.17 258.978 142.27 258.278 143.07 257.278C144.27 255.878 144.57 256.178 145.07 260.078L145.67 264.478L145.77 259.678C145.87 257.078 145.67 254.978 145.27 254.978C144.77 254.978 136.57 261.678 126.97 269.678Z" fill="#EC6B15"/>
<path d="M326.97 293.178C326.87 303.078 317.67 344.078 311.77 360.978C308.57 370.078 295.77 396.578 285.97 414.478C279.07 427.078 272.07 447.278 269.47 462.278C266.97 476.478 267.77 495.478 271.37 506.578C272.77 511.078 274.97 515.878 276.07 517.378L278.17 520.078L316.07 519.778C342.97 519.578 354.17 519.178 355.07 518.278C356.67 516.678 357.37 501.278 356.07 496.278C355.27 493.378 353.77 491.178 351.27 489.278C341.97 482.078 342.67 483.478 343.97 473.978C346.37 455.778 351.37 440.978 358.77 429.978C368.47 415.578 380.37 395.978 384.47 387.478C390.87 374.078 396.47 355.378 397.97 342.478C399.87 326.178 400.37 327.278 387.47 322.978C374.17 318.578 351.87 307.478 338.17 298.478C332.67 294.878 327.97 291.978 327.57 291.978C327.27 291.978 326.97 292.578 326.97 293.178Z" fill="#EC6B15"/>
</svg>
